<svg width="639" height="840" viewBox="0 0 639 840" fill="none" xmlns="http://www.w3.org/2000/svg">
<path d="M0 30C0 13.4314 13.4315 0 30 0H639V840H30C13.4315 840 0 826.569 0 810V30Z" fill="#C8D5B9"/>
<path d="M480.476 394.334C499.092 394.334 514.183 378.313 514.183 358.55C514.183 338.787 499.092 322.766 480.476 322.766C461.86 322.766 446.769 338.787 446.769 358.55C446.769 378.313 461.86 394.334 480.476 394.334Z" fill="#8FC0A9"/>
<path d="M381.506 505.045C381.506 599.582 324.489 621.972 244.829 621.972C165.169 621.972 142.019 619.742 142.019 525.205C142.019 430.667 38.7731 266.425 118.433 266.425C198.093 266.425 381.506 410.507 381.506 505.045Z" fill="#FAF3DD"/>
<path d="M470.775 602.712H206.336C195.802 602.712 187.232 593.614 187.232 582.431V370.221C187.232 359.038 195.802 349.94 206.336 349.94H470.775C481.308 349.94 489.878 359.038 489.878 370.221V582.431C489.878 593.614 481.308 602.712 470.775 602.712V602.712ZM206.336 351.462C196.593 351.462 188.666 359.877 188.666 370.221V582.431C188.666 592.775 196.593 601.19 206.336 601.19H470.775C480.518 601.19 488.444 592.775 488.444 582.431V370.221C488.444 359.877 480.518 351.462 470.775 351.462H206.336V351.462Z" fill="#3F3D56"/>
<path d="M285.606 587.996C288.598 587.915 291.014 587.431 291.001 586.915C290.989 586.4 288.553 586.048 285.561 586.129C282.569 586.211 280.154 586.695 280.166 587.21C280.179 587.726 282.614 588.077 285.606 587.996Z" fill="#E6E6E6"/>
<path d="M319.946 584.96C322.938 584.878 325.353 584.395 325.341 583.879C325.329 583.364 322.893 583.012 319.901 583.093C316.909 583.175 314.493 583.659 314.506 584.174C314.518 584.689 316.954 585.041 319.946 584.96Z" fill="#3F3D56"/>
<path d="M271.784 581.718C274.776 581.636 277.191 581.153 277.179 580.637C277.166 580.122 274.731 579.77 271.739 579.851C268.747 579.933 266.331 580.417 266.344 580.932C266.356 581.448 268.792 581.799 271.784 581.718Z" fill="#8FC0A9"/>
<path d="M260.331 578.951C260.336 578.487 259.262 578.098 257.933 578.082C256.603 578.066 255.521 578.429 255.516 578.893C255.511 579.356 256.585 579.745 257.915 579.761C259.244 579.777 260.326 579.414 260.331 578.951Z" fill="#E6E6E6"/>
<path d="M251.931 574.025C251.936 573.561 250.862 573.173 249.532 573.157C248.203 573.141 247.121 573.503 247.116 573.967C247.111 574.431 248.185 574.819 249.514 574.835C250.844 574.851 251.926 574.488 251.931 574.025Z" fill="#3F3D56"/>
<path d="M297.615 580.737C297.62 580.274 296.546 579.885 295.217 579.869C293.887 579.853 292.805 580.216 292.8 580.68C292.795 581.143 293.869 581.532 295.199 581.548C296.528 581.564 297.61 581.201 297.615 580.737Z" fill="#E6E6E6"/>
<path d="M282.047 583.855C282.052 583.391 280.978 583.003 279.648 582.987C278.319 582.971 277.237 583.333 277.232 583.797C277.227 584.261 278.301 584.649 279.63 584.665C280.96 584.681 282.042 584.318 282.047 583.855Z" fill="#8FC0A9"/>
<path d="M307.85 586.162C307.855 585.698 306.781 585.309 305.452 585.293C304.122 585.277 303.04 585.64 303.035 586.104C303.03 586.567 304.104 586.956 305.434 586.972C306.764 586.988 307.845 586.625 307.85 586.162Z" fill="#3F3D56"/>
<path d="M393.899 586.473C396.891 586.392 399.307 585.908 399.294 585.393C399.282 584.877 396.846 584.525 393.854 584.607C390.862 584.688 388.447 585.172 388.459 585.688C388.472 586.203 390.907 586.555 393.899 586.473Z" fill="#E6E6E6"/>
<path d="M428.239 583.437C431.231 583.356 433.646 582.872 433.634 582.356C433.622 581.841 431.186 581.489 428.194 581.571C425.202 581.652 422.786 582.136 422.799 582.651C422.811 583.167 425.247 583.519 428.239 583.437Z" fill="#3F3D56"/>
<path d="M380.077 580.195C383.069 580.114 385.484 579.63 385.472 579.114C385.459 578.599 383.024 578.247 380.032 578.329C377.04 578.41 374.624 578.894 374.637 579.409C374.649 579.925 377.085 580.277 380.077 580.195Z" fill="#8FC0A9"/>
<path d="M368.624 577.428C368.629 576.964 367.555 576.576 366.225 576.56C364.896 576.544 363.814 576.907 363.809 577.37C363.804 577.834 364.878 578.222 366.208 578.238C367.537 578.254 368.619 577.892 368.624 577.428Z" fill="#E6E6E6"/>
<path d="M360.224 572.502C360.229 572.039 359.155 571.65 357.825 571.634C356.496 571.618 355.414 571.981 355.409 572.444C355.404 572.908 356.478 573.297 357.807 573.313C359.137 573.329 360.219 572.966 360.224 572.502Z" fill="#3F3D56"/>
<path d="M405.908 579.215C405.913 578.751 404.839 578.363 403.51 578.347C402.18 578.331 401.098 578.693 401.093 579.157C401.088 579.621 402.162 580.009 403.492 580.025C404.821 580.041 405.903 579.678 405.908 579.215Z" fill="#E6E6E6"/>
<path d="M390.34 582.332C390.345 581.869 389.271 581.48 387.941 581.464C386.612 581.448 385.53 581.811 385.525 582.274C385.52 582.738 386.594 583.127 387.923 583.143C389.253 583.159 390.335 582.796 390.34 582.332Z" fill="#8FC0A9"/>
<path d="M416.143 584.639C416.148 584.175 415.074 583.787 413.745 583.771C412.415 583.755 411.333 584.118 411.328 584.581C411.323 585.045 412.397 585.433 413.727 585.449C415.056 585.465 416.138 585.102 416.143 584.639Z" fill="#3F3D56"/>
<path d="M259.774 544.375C257.942 544.496 256.929 542.079 258.315 540.67L258.453 540.088C258.435 540.041 258.417 539.994 258.398 539.948C256.545 535.256 250.263 535.288 248.425 539.987C246.794 544.158 244.717 548.336 244.206 552.746C243.976 554.693 244.079 556.676 244.486 558.586C240.664 549.722 238.653 540.044 238.653 530.31C238.653 527.864 238.779 525.419 239.037 522.979C239.249 520.984 239.541 519.001 239.919 517.036C241.965 506.414 246.395 496.297 252.784 487.847C255.855 486.065 258.417 483.278 259.964 479.938C260.52 478.734 260.955 477.438 261.162 476.118C260.812 476.167 259.844 470.515 260.107 470.168C259.62 469.384 258.748 468.994 258.216 468.228C255.57 464.419 251.925 465.084 250.022 470.26C245.956 472.438 245.917 476.05 248.412 479.525C249.999 481.735 250.217 484.726 251.609 487.093C251.466 487.287 251.317 487.476 251.174 487.671C248.547 491.248 246.274 495.093 244.359 499.132C244.9 494.643 244.101 489.235 242.739 485.748C241.187 481.776 238.28 478.431 235.72 474.997C232.645 470.872 226.339 472.672 225.798 477.901C225.792 477.951 225.787 478.002 225.782 478.053C226.163 478.28 226.535 478.522 226.899 478.778C228.975 480.235 228.257 483.651 225.798 484.054L225.742 484.063C225.88 485.517 226.115 486.959 226.458 488.376C223.174 501.86 230.265 506.771 240.389 506.992C240.613 507.114 240.83 507.235 241.054 507.351C240.028 510.417 239.209 513.562 238.601 516.75C238.057 519.566 237.679 522.413 237.467 525.273C237.203 528.88 237.226 532.506 237.512 536.107L237.495 535.98C236.767 532.013 234.739 528.308 231.793 525.741C227.406 521.915 221.206 520.506 216.473 517.43C214.194 515.949 211.274 517.863 211.672 520.667C211.678 520.712 211.685 520.757 211.691 520.801C212.396 521.106 213.084 521.458 213.748 521.854C214.129 522.082 214.501 522.324 214.865 522.579C216.941 524.036 216.223 527.452 213.764 527.855L213.708 527.864C213.668 527.87 213.634 527.877 213.594 527.883C214.803 530.93 216.488 533.759 218.596 536.199C220.65 547.97 229.47 549.086 238.905 545.659H238.911C239.942 550.428 241.449 555.088 243.386 559.529H259.374C259.431 559.34 259.483 559.146 259.534 558.957C258.056 559.054 256.566 558.963 255.11 558.677C256.297 557.132 257.483 555.575 258.669 554.029C258.698 553.999 258.721 553.969 258.744 553.938C259.345 553.147 259.953 552.363 260.554 551.572L260.555 551.571C260.592 549.143 260.318 546.723 259.775 544.375L259.774 544.375V544.375Z" fill="#8FC0A9"/>
<path d="M417.178 544.375C419.01 544.496 420.023 542.079 418.637 540.67L418.499 540.088C418.517 540.041 418.535 539.994 418.554 539.948C420.407 535.256 426.689 535.288 428.527 539.987C430.158 544.158 432.235 548.336 432.747 552.746C432.976 554.693 432.873 556.676 432.466 558.586C436.288 549.722 438.299 540.044 438.299 530.31C438.299 527.864 438.173 525.419 437.915 522.979C437.703 520.984 437.411 519.001 437.033 517.036C434.987 506.414 430.558 496.297 424.168 487.847C421.097 486.065 418.535 483.278 416.988 479.938C416.432 478.734 415.997 477.438 415.79 476.118C416.14 476.167 417.108 470.515 416.845 470.168C417.332 469.384 418.204 468.994 418.736 468.228C421.382 464.419 425.027 465.084 426.93 470.26C430.996 472.438 431.035 476.05 428.54 479.525C426.953 481.735 426.735 484.726 425.343 487.093C425.486 487.287 425.635 487.476 425.778 487.671C428.405 491.248 430.678 495.093 432.593 499.132C432.052 494.643 432.851 489.235 434.214 485.748C435.765 481.776 438.672 478.431 441.232 474.997C444.307 470.872 450.613 472.672 451.154 477.901C451.16 477.951 451.165 478.002 451.17 478.053C450.79 478.28 450.417 478.522 450.053 478.778C447.977 480.235 448.695 483.651 451.154 484.054L451.21 484.063C451.072 485.517 450.837 486.959 450.494 488.376C453.778 501.86 446.687 506.771 436.563 506.992C436.34 507.114 436.122 507.235 435.898 507.351C436.924 510.417 437.743 513.562 438.351 516.75C438.895 519.566 439.273 522.413 439.485 525.273C439.749 528.88 439.726 532.506 439.44 536.107L439.457 535.98C440.185 532.013 442.213 528.308 445.159 525.741C449.546 521.915 455.746 520.506 460.479 517.43C462.758 515.949 465.678 517.863 465.28 520.667C465.274 520.712 465.267 520.757 465.261 520.801C464.556 521.106 463.868 521.458 463.204 521.854C462.823 522.082 462.451 522.324 462.087 522.579C460.011 524.036 460.729 527.452 463.188 527.855L463.244 527.864C463.284 527.87 463.318 527.877 463.358 527.883C462.149 530.93 460.464 533.759 458.356 536.199C456.302 547.97 447.482 549.086 438.047 545.659H438.041C437.01 550.428 435.503 555.088 433.566 559.529H417.578C417.521 559.34 417.469 559.146 417.418 558.957C418.896 559.054 420.386 558.963 421.842 558.677C420.655 557.132 419.469 555.575 418.283 554.029C418.254 553.999 418.231 553.969 418.209 553.938C417.607 553.147 416.999 552.363 416.398 551.572L416.397 551.571C416.36 549.143 416.634 546.723 417.177 544.375L417.178 544.375V544.375Z" fill="#8FC0A9"/>
<path d="M108.029 559.62C108.029 560.123 108.409 560.526 108.883 560.526H564.495C564.968 560.526 565.348 560.123 565.348 559.62C565.348 559.118 564.968 558.714 564.495 558.714H108.883C108.409 558.714 108.029 559.118 108.029 559.62V559.62Z" fill="#3F3D56"/>
<path d="M142.513 313.239H123.149C121.172 313.239 119.563 311.531 119.563 309.432C119.563 307.333 121.172 305.625 123.149 305.625H142.513C144.49 305.625 146.099 307.333 146.099 309.432C146.099 311.531 144.49 313.239 142.513 313.239Z" fill="#E6E6E6"/>
<path d="M443.399 312.477C445.181 312.477 446.626 310.943 446.626 309.051C446.626 307.159 445.181 305.625 443.399 305.625C441.617 305.625 440.172 307.159 440.172 309.051C440.172 310.943 441.617 312.477 443.399 312.477Z" fill="#E6E6E6"/>
<path d="M453.439 312.477C455.222 312.477 456.667 310.943 456.667 309.051C456.667 307.159 455.222 305.625 453.439 305.625C451.657 305.625 450.212 307.159 450.212 309.051C450.212 310.943 451.657 312.477 453.439 312.477Z" fill="#E6E6E6"/>
<path d="M463.48 312.477C465.262 312.477 466.707 310.943 466.707 309.051C466.707 307.159 465.262 305.625 463.48 305.625C461.697 305.625 460.252 307.159 460.252 309.051C460.252 310.943 461.697 312.477 463.48 312.477Z" fill="#E6E6E6"/>
<path d="M575 462.847V631.725C575 641.249 567.699 649 558.727 649H436.708L437.841 647.477L573.566 464.78L575 462.847V462.847Z" fill="#FAF3DD"/>
<path d="M558.727 247H94.2726C85.3008 247 78 254.751 78 264.275V631.725C78 641.249 85.3008 649 94.2726 649H558.727C567.699 649 575 641.249 575 631.725V264.275C575 254.751 567.699 247 558.727 247ZM573.566 631.725C573.566 640.425 566.922 647.477 558.727 647.477H94.2726C86.0777 647.477 79.4343 640.425 79.4343 631.725V367.048C79.4343 301.588 129.42 248.523 191.08 248.523H558.727C566.922 248.523 573.566 255.575 573.566 264.275V631.725Z" fill="#E6E6E6"/>
<path d="M363.709 454.732L361.518 418.691C361.316 415.515 358.75 413.098 355.756 413.262V413.262C352.613 413.435 350.249 416.37 350.578 419.693L353.935 457.057L355.074 479.852C353.402 480.719 352.291 482.585 352.393 484.682C352.529 487.486 354.78 489.641 357.421 489.496C360.062 489.351 362.092 486.961 361.955 484.158C361.905 483.134 361.571 482.199 361.042 481.429L363.709 454.732H363.709Z" fill="#FFB6B6"/>
<path d="M365.084 451.745C365.588 451.18 365.635 450.34 365.261 449.67C365.04 449.272 364.928 448.806 364.967 448.346C364.974 448.256 364.988 426.849 365.006 426.761C365.235 425.678 365.021 424.564 364.323 423.738C363.203 422.41 362.615 420.358 362.328 418.52C362.014 416.508 361.798 414.448 361.04 412.575C359.946 409.873 357.47 407.522 354.245 408.815C352.877 409.364 351.76 410.457 351.028 411.801C349.493 414.62 349.588 417.953 349.709 421.142L349.08 419.904C349.27 423.372 348.791 426.88 347.682 430.148C348.404 429.97 348.954 452.307 348.744 453.062C348.534 453.818 347.901 454.333 347.361 454.874C346.681 455.555 346.051 456.552 346.744 457.527C347.077 457.996 347.609 458.262 348.16 458.317C353.321 458.835 358.582 458.201 363.504 456.472C364.601 456.087 365.773 455.565 366.314 454.481C366.855 453.397 366.238 451.684 365.084 451.745H365.084Z" fill="#8FC0A9"/>
<path d="M316.729 586.313L311.854 588.341L302.002 568.9L309.197 565.906L316.729 586.313Z" fill="#FFB6B6"/>
<path d="M304.27 601.151C304.742 602.428 306.099 603.058 307.303 602.559L316.995 598.526L317.31 594.166L319.315 597.558L322.973 596.04L317.117 583.386L315.815 583.838L310.5 585.664L308.786 586.257L310.153 589.961L304.507 598.857C304.078 599.534 303.989 600.391 304.27 601.151H304.27Z" fill="#2F2E41"/>
<path d="M366.478 635.689L361.243 635.804L358.325 613.946L366.051 613.776L366.478 635.689Z" fill="#FFB6B6"/>
<path d="M349.957 645.043C349.985 646.415 351.053 647.503 352.345 647.477L362.753 647.247L364.467 643.271L365.245 647.19L369.172 647.106L367.795 633.085L366.426 633.031L360.843 632.795L359.042 632.723L359.12 636.7L350.926 642.977C350.303 643.455 349.941 644.227 349.957 645.043H349.957Z" fill="#2F2E41"/>
<path d="M324.086 454.299L358.515 460.683L357.219 467.56C357.219 467.56 359.379 470.445 358.515 471.524C357.651 472.603 355.924 470.769 357.651 472.603C359.379 474.437 359.932 474.931 357.341 477.682C354.75 480.433 358.926 476.038 358.926 476.038C358.926 476.038 359.124 481.1 360.128 482.688C367.076 493.679 365.211 503.508 361.66 516.196C359.65 523.375 363.793 537.215 363.793 539.744L363.387 557.46C363.387 557.46 372.457 596.432 367.706 614.772L368.377 621.826L357.341 622.108L344.385 567.089C344.385 567.089 342.354 561.575 342.29 559.518C342.225 557.46 342.225 559.294 342.225 557.46C342.225 555.626 341.793 553.792 341.793 553.334C341.793 552.875 338.338 508.04 338.338 508.04C338.338 508.04 325.664 515.464 324.369 516.839C323.073 518.214 320.766 516.956 320.783 518.362C320.8 519.767 319.594 520.278 318.631 521.407C317.669 522.536 316.082 520.259 316.946 523.468C317.81 526.678 305.479 531.557 304.183 532.933C302.888 534.308 314.328 544.248 312.894 563.282L312.177 570.896L302.854 575.464L282.942 536.085C280.883 531.365 281.585 525.806 284.744 521.829L312.894 486.384C312.894 486.384 316.312 468.971 319.335 467.137L324.086 454.299V454.299Z" fill="#2F2E41"/>
<path d="M356.728 456.812C357.03 455.441 354.534 446.014 355.596 442.681C356.291 440.498 357.963 438.889 357.941 436.289C357.941 436.12 357.932 435.946 357.911 435.767C357.902 435.674 357.884 435.58 357.871 435.486C360.033 427.313 361.115 412.118 361.115 412.118L350.771 399.023C350.765 398.966 350.756 398.911 350.75 398.853C350.539 396.919 349.003 398.323 347.318 397.305C346.567 396.856 346.958 393.182 346.09 393.434C346.06 393.443 346.034 393.455 346.005 393.465L345.977 393.434L344.271 391.485L334.885 390.568L332.704 393.727L332.703 393.75C330.844 394.116 330.367 394.332 330.083 396.52C330.031 396.932 329.997 397.345 329.984 397.762C329.92 399.322 322.236 400.888 322.588 402.372L320.066 404.157C320.066 404.157 310.585 416.703 314.04 420.371C315.353 421.764 316.039 424.08 316.32 426.597C316.33 426.682 316.347 426.758 316.361 426.839C315.965 428.188 315.413 430.481 316.316 430.976C317.924 431.856 321.387 457.478 317.729 459.306C309.061 463.637 332.313 472.167 341.564 472.685C344.276 472.836 347.511 472.671 350.102 471.901L358.793 472.68L358.076 468.112C364.303 467.548 356.417 458.233 356.728 456.812H356.728Z" fill="#8FC0A9"/>
<path d="M282.738 387.366L308.079 410.521C309.95 413.117 313.437 413.64 315.912 411.695H315.912C318.509 409.655 318.962 405.719 316.905 403.074L289.86 379.489L280.906 354.304C281.873 352.554 281.827 350.289 280.618 348.555C279.003 346.239 275.925 345.75 273.743 347.465C271.561 349.179 271.101 352.447 272.716 354.764C273.306 355.61 274.091 356.209 274.956 356.549L282.738 387.366V387.366Z" fill="#FFB6B6"/>
<path d="M283.114 391.227C282.984 392.014 299.889 406.466 300.566 406.814C300.968 407.021 301.313 407.353 301.526 407.77C301.567 407.851 301.604 407.935 301.634 408.021C302.018 409.086 302.796 409.91 303.835 410.197C305.503 410.659 307.103 412.06 308.331 413.46C309.675 414.993 310.96 416.625 312.611 417.771C314.991 419.425 318.366 419.946 320.434 416.896C321.312 415.602 321.684 413.994 321.592 412.403C321.398 409.067 319.535 406.271 317.728 403.616L318.927 404.296C316.911 401.443 313.135 400.713 312.338 397.248C311.815 397.836 310.8 397.296 310.576 396.523C310.352 395.75 294.123 381.223 294.296 380.435C294.514 379.442 294.52 378.209 293.406 377.793C292.871 377.592 292.273 377.685 291.772 377.969C287.079 380.635 285.227 381.786 281.939 386.23C281.207 387.221 280.482 388.373 280.599 389.627C280.715 390.88 282.159 391.974 283.114 391.227V391.227Z" fill="#8FC0A9"/>
<path d="M337.301 391.386C345.504 391.386 352.155 384.326 352.155 375.617C352.155 366.907 345.504 359.847 337.301 359.847C329.097 359.847 322.446 366.907 322.446 375.617C322.446 384.326 329.097 391.386 337.301 391.386Z" fill="#FFB6B6"/>
<path d="M193.43 385.667H116.428C114.041 385.667 112.1 387.728 112.1 390.263C112.1 392.798 114.041 394.859 116.428 394.859H193.43C195.818 394.859 197.759 392.798 197.759 390.263C197.759 387.728 195.818 385.667 193.43 385.667V385.667Z" fill="#E6E6E6"/>
<path d="M159.871 359.899H116.428C114.041 359.899 112.1 361.96 112.1 364.495C112.1 367.03 114.041 369.091 116.428 369.091H159.871C162.259 369.091 164.2 367.03 164.2 364.495C164.2 361.96 162.259 359.899 159.871 359.899V359.899Z" fill="#E6E6E6"/>
<path d="M193.43 523.474H116.428C114.041 523.474 112.1 525.535 112.1 528.07C112.1 530.605 114.041 532.665 116.428 532.665H193.43C195.818 532.665 197.759 530.605 197.759 528.07C197.759 525.535 195.818 523.474 193.43 523.474V523.474Z" fill="#E6E6E6"/>
<path d="M159.871 497.706H116.428C114.041 497.706 112.1 499.767 112.1 502.302C112.1 504.837 114.041 506.897 116.428 506.897H159.871C162.259 506.897 164.2 504.837 164.2 502.302C164.2 499.767 162.259 497.706 159.871 497.706V497.706Z" fill="#E6E6E6"/>
<path d="M525.848 634.694C527.33 634.793 528.149 632.839 527.028 631.7L526.916 631.229C526.931 631.191 526.946 631.154 526.961 631.116C528.459 627.323 533.537 627.349 535.023 631.148C536.341 634.519 538.02 637.897 538.433 641.461C538.619 643.035 538.535 644.638 538.206 646.182C541.296 639.017 542.922 631.193 542.922 623.325C542.922 621.348 542.82 619.372 542.611 617.4C542.44 615.787 542.204 614.184 541.898 612.595C540.244 604.009 536.664 595.831 531.499 589.001C529.016 587.56 526.946 585.308 525.695 582.608C525.246 581.634 524.894 580.587 524.727 579.52C525.009 579.559 525.792 574.991 525.579 574.71C525.973 574.076 526.678 573.761 527.108 573.142C529.247 570.063 532.193 570.601 533.732 574.784C537.018 576.545 537.05 579.465 535.033 582.274C533.75 584.06 533.574 586.478 532.449 588.391C532.564 588.548 532.685 588.701 532.801 588.858C534.924 591.75 536.761 594.858 538.309 598.123C537.872 594.494 538.518 590.122 539.619 587.304C540.873 584.093 543.223 581.389 545.292 578.613C547.778 575.279 552.875 576.734 553.313 580.961C553.317 581.002 553.321 581.043 553.326 581.084C553.018 581.268 552.717 581.463 552.423 581.67C550.745 582.848 551.325 585.609 553.313 585.935L553.358 585.942C553.247 587.117 553.057 588.283 552.779 589.429C555.434 600.328 549.702 604.298 541.518 604.476C541.338 604.575 541.162 604.673 540.981 604.767C541.81 607.245 542.473 609.787 542.963 612.364C543.404 614.641 543.709 616.942 543.881 619.254C544.094 622.17 544.075 625.101 543.844 628.012L543.857 627.908C544.446 624.702 546.086 621.707 548.466 619.632C552.013 616.539 557.024 615.4 560.851 612.914C562.693 611.717 565.053 613.264 564.732 615.531L564.716 615.639C564.146 615.885 563.59 616.17 563.053 616.49C562.746 616.674 562.444 616.87 562.15 617.076C560.473 618.254 561.052 621.015 563.04 621.341L563.085 621.348C563.118 621.353 563.146 621.358 563.178 621.363C562.201 623.827 560.839 626.114 559.134 628.086C557.474 637.6 550.345 638.503 542.718 635.732H542.713C541.88 639.588 540.661 643.355 539.096 646.944H526.172C526.126 646.792 526.084 646.634 526.042 646.482C527.237 646.561 528.442 646.487 529.618 646.256C528.659 645.007 527.701 643.748 526.742 642.499C526.719 642.474 526.7 642.45 526.682 642.425C526.195 641.786 525.704 641.151 525.218 640.512L525.218 640.511C525.187 638.549 525.409 636.593 525.848 634.695L525.848 634.694V634.694Z" fill="white"/>
<path d="M353.989 368.069C356.067 360.027 333.421 353.131 329.021 359.607C328.409 358.686 326.147 358.127 325.11 358.41C324.072 358.692 323.199 359.398 322.348 360.082C321.177 361.036 319.964 362.025 319.246 363.398C318.522 364.765 318.41 366.629 319.384 367.815C320.156 368.758 321.512 373.771 322.672 374.02C323.48 374.195 324.161 374.336 324.747 374.438C325.268 373.63 326.598 372.616 326.502 371.638C327.29 372.192 327.002 373.166 326.843 374.161C326.315 377.476 314.403 403.135 321.225 395.574C321.901 395.998 322.737 396.393 323.7 396.755C325.333 394.139 326.674 391.055 327.557 387.829L327.564 387.889C327.868 390.692 329.797 392.992 332.35 393.777C342.591 396.927 350.875 392.305 353.724 383.971C352.681 381.723 352.227 381.967 352.32 381.9C353.622 380.968 355.412 381.577 355.972 383.135C356.137 383.594 356.287 383.986 356.417 384.282C357.901 378.644 359.667 379.458 353.989 368.069H353.989Z" fill="#2F2E41"/>
<path d="M346.924 362.234L345.878 356.557C345.79 356.08 345.707 355.562 345.91 355.126C346.17 354.565 346.84 354.333 347.422 354.423C348.005 354.512 348.44 355.077 349.02 355.186C351.035 355.564 353.699 353.451 354.421 358.796C354.722 361.025 358.072 361.26 359.19 363.173C360.309 365.086 360.447 367.847 358.92 369.41C357.7 370.658 355.742 370.802 354.158 370.164C352.574 369.527 351.303 368.239 350.193 366.881C349.083 365.523 348.077 364.053 346.797 362.876" fill="#2F2E41"/>
<path d="M354.787 370.87C350.701 370.264 347.915 368.686 346.508 366.181C344.667 362.901 345.9 359.29 345.954 359.138L346.817 359.479C346.806 359.512 345.687 362.818 347.305 365.688C348.563 367.921 351.124 369.339 354.914 369.901L354.787 370.87V370.87Z" fill="#8FC0A9"/>
</svg>
